<svg width="30" height="30" viewBox="0 0 30 30" fill="none" xmlns="http://www.w3.org/2000/svg">
<path d="M26.4256 5.93272C28.2578 8.095 29.3916 10.7656 29.6836 13.6068C29.9757 16.448 29.4129 19.3323 28.0664 21.8947C26.7199 24.4572 24.6502 26.5829 22.119 28.0029C19.5878 29.423 16.7088 30.0736 13.8461 29.8726C10.9834 29.6715 8.26548 28.6278 6.03613 26.8735C3.80679 25.1191 2.16611 22.7329 1.32157 20.0165C0.477029 17.3002 0.466559 14.3757 1.29148 11.6129C2.11641 8.85014 3.73968 6.37315 5.95602 4.49519C8.92804 1.97691 12.7543 0.713619 16.5931 0.983207C20.4319 1.2528 23.9688 3.03319 26.4256 5.93272ZM18.7048 9.79727C17.6955 8.15408 15.8929 8.33672 13.9024 9.12742L12.7365 6.72959L11.254 7.47376L12.3894 9.80872C12.0002 10.0037 11.6041 10.2113 11.2119 10.4174L10.0703 8.06888L8.58891 8.81219L9.75397 11.209C9.43569 11.3763 9.12334 11.5403 8.81662 11.6944L8.80904 11.6855L6.7655 12.7088L7.52444 14.2671C7.52444 14.2671 8.61334 13.6943 8.60087 13.7271C8.78746 13.6033 9.0135 13.5559 9.2307 13.5951C9.44789 13.6343 9.63903 13.7569 9.76328 13.9367L11.0923 16.6674C11.1447 16.6409 11.1988 16.6178 11.2542 16.5984L11.0969 16.677L12.9574 20.5035C12.9861 20.5733 13.0006 20.6485 13 20.7246C12.9994 20.8008 12.9837 20.8764 12.9538 20.9472C12.924 21.018 12.8805 21.0826 12.8259 21.1372C12.7714 21.1919 12.7068 21.2355 12.6359 21.2657C12.6632 21.2732 11.5576 21.8056 11.5576 21.8056L12.1099 23.696L14.0404 22.7292C14.3992 22.5498 14.7562 22.3787 15.1039 22.2069L16.2841 24.6319L17.7645 23.8895L16.5978 21.4907C16.9965 21.3007 17.3931 21.1068 17.7877 20.9091L18.9489 23.2972L20.4313 22.553L19.257 20.135C21.6817 18.7461 23.1267 17.2537 22.2225 14.8406C22.137 14.4644 21.9732 14.112 21.7415 13.806C21.5098 13.4999 21.2154 13.247 20.877 13.0633C20.5386 12.8796 20.1637 12.7692 19.7763 12.7391C19.3889 12.7091 18.9974 12.7601 18.627 12.8888C18.9806 12.4459 19.1799 11.9026 19.1939 11.3434C19.208 10.7842 19.036 10.2406 18.7048 9.79727ZM19.1519 16.0226C20.0347 17.8344 16.7791 19.2089 15.7764 19.7121L14.2143 16.4998C15.2165 15.9919 18.2335 14.1336 19.1528 16.0236L19.1519 16.0226ZM16.2547 11.8375C17.0555 13.4866 14.3331 14.6108 13.4947 15.0293L12.0763 12.1167C12.9187 11.6947 15.4204 10.1159 16.2547 11.8375Z" fill="#A9E96A"/>
</svg>
