<svg width="31" height="29" viewBox="0 0 31 29" fill="none" xmlns="http://www.w3.org/2000/svg">
<mask id="path-1-inside-1" fill="white">
<path d="M29.8128 17.227C29.305 20.0152 27.9611 22.5865 25.9511 24.6157C23.9411 26.6449 21.3552 28.0408 18.5204 28.627C15.6857 29.2131 12.7294 28.9631 10.0254 27.9087C7.32142 26.8542 4.99118 25.0426 3.32936 22.703C1.66755 20.3633 0.748794 17.6007 0.689283 14.7644C0.629771 11.9282 1.43218 9.14575 2.99503 6.76892C4.55788 4.39209 6.81098 2.52764 9.46942 1.41135C12.1279 0.295055 15.0722 -0.0229465 17.9302 0.497557C21.7626 1.19553 25.1676 3.35021 27.396 6.48758C29.6244 9.62496 30.4938 13.488 29.8128 17.227ZM21.9257 13.7141C22.5548 11.8913 21.2695 10.6143 19.395 9.57815L20.5077 7.15519L18.9917 6.48206L17.9081 8.84153C17.5104 8.66454 17.0985 8.49028 16.6904 8.31802L17.7804 5.94518L16.2657 5.27229L15.1532 7.69398C14.8219 7.55423 14.4969 7.41697 14.1832 7.27777L14.1853 7.26624L12.0974 6.33678L11.375 7.9124C11.375 7.9124 12.5088 8.39019 12.4755 8.40134C12.6896 8.46695 12.8697 8.61154 12.9773 8.80423C13.0849 8.99692 13.1115 9.22243 13.0514 9.4326L11.785 12.1928C11.8388 12.2166 11.891 12.2438 11.9411 12.2742L11.7805 12.2026L10.0047 16.0691C9.96902 16.1356 9.92015 16.1945 9.86093 16.2424C9.80171 16.2902 9.73332 16.3261 9.65965 16.348C9.58599 16.3698 9.50851 16.3772 9.43165 16.3698C9.35479 16.3623 9.28006 16.3401 9.21174 16.3045C9.22329 16.3304 8.11007 15.814 8.11007 15.814L6.99991 17.4407L8.9724 18.3188C9.33874 18.4821 9.69759 18.6493 10.051 18.809L8.92638 21.2602L10.4398 21.9329L11.5528 19.5086C11.9527 19.6962 12.3543 19.8796 12.7575 20.0589L11.6492 22.4721L13.1653 23.1452L14.2883 20.7029C16.9007 21.6948 18.971 21.8641 20.2617 19.6337C20.4981 19.3288 20.6664 18.9786 20.7558 18.6053C20.8452 18.232 20.8538 17.8439 20.7809 17.4658C20.7081 17.0877 20.5554 16.7279 20.3327 16.4095C20.11 16.0911 19.8222 15.821 19.4876 15.6165C20.0542 15.6085 20.6006 15.4176 21.0416 15.0736C21.4826 14.7295 21.7935 14.2515 21.9257 13.7141ZM17.3992 18.0113C16.5596 19.8435 13.431 18.2004 12.4057 17.745L13.8962 14.4989C14.9249 14.9509 18.2759 16.1025 17.399 18.0126L17.3992 18.0113ZM18.794 13.116C18.0281 14.7816 15.4313 13.3916 14.5758 13.0095L15.926 10.0646C16.7868 10.4477 19.5947 11.3786 18.794 13.116Z"/>
</mask>
<path d="M29.8128 17.227C29.305 20.0152 27.9611 22.5865 25.9511 24.6157C23.9411 26.6449 21.3552 28.0408 18.5204 28.627C15.6857 29.2131 12.7294 28.9631 10.0254 27.9087C7.32142 26.8542 4.99118 25.0426 3.32936 22.703C1.66755 20.3633 0.748794 17.6007 0.689283 14.7644C0.629771 11.9282 1.43218 9.14575 2.99503 6.76892C4.55788 4.39209 6.81098 2.52764 9.46942 1.41135C12.1279 0.295055 15.0722 -0.0229465 17.9302 0.497557C21.7626 1.19553 25.1676 3.35021 27.396 6.48758C29.6244 9.62496 30.4938 13.488 29.8128 17.227ZM21.9257 13.7141C22.5548 11.8913 21.2695 10.6143 19.395 9.57815L20.5077 7.15519L18.9917 6.48206L17.9081 8.84153C17.5104 8.66454 17.0985 8.49028 16.6904 8.31802L17.7804 5.94518L16.2657 5.27229L15.1532 7.69398C14.8219 7.55423 14.4969 7.41697 14.1832 7.27777L14.1853 7.26624L12.0974 6.33678L11.375 7.9124C11.375 7.9124 12.5088 8.39019 12.4755 8.40134C12.6896 8.46695 12.8697 8.61154 12.9773 8.80423C13.0849 8.99692 13.1115 9.22243 13.0514 9.4326L11.785 12.1928C11.8388 12.2166 11.891 12.2438 11.9411 12.2742L11.7805 12.2026L10.0047 16.0691C9.96902 16.1356 9.92015 16.1945 9.86093 16.2424C9.80171 16.2902 9.73332 16.3261 9.65965 16.348C9.58599 16.3698 9.50851 16.3772 9.43165 16.3698C9.35479 16.3623 9.28006 16.3401 9.21174 16.3045C9.22329 16.3304 8.11007 15.814 8.11007 15.814L6.99991 17.4407L8.9724 18.3188C9.33874 18.4821 9.69759 18.6493 10.051 18.809L8.92638 21.2602L10.4398 21.9329L11.5528 19.5086C11.9527 19.6962 12.3543 19.8796 12.7575 20.0589L11.6492 22.4721L13.1653 23.1452L14.2883 20.7029C16.9007 21.6948 18.971 21.8641 20.2617 19.6337C20.4981 19.3288 20.6664 18.9786 20.7558 18.6053C20.8452 18.232 20.8538 17.8439 20.7809 17.4658C20.7081 17.0877 20.5554 16.7279 20.3327 16.4095C20.11 16.0911 19.8222 15.821 19.4876 15.6165C20.0542 15.6085 20.6006 15.4176 21.0416 15.0736C21.4826 14.7295 21.7935 14.2515 21.9257 13.7141ZM17.3992 18.0113C16.5596 19.8435 13.431 18.2004 12.4057 17.745L13.8962 14.4989C14.9249 14.9509 18.2759 16.1025 17.399 18.0126L17.3992 18.0113ZM18.794 13.116C18.0281 14.7816 15.4313 13.3916 14.5758 13.0095L15.926 10.0646C16.7868 10.4477 19.5947 11.3786 18.794 13.116Z" fill="#F9D369"/>
<path d="M17.9302 0.497557L20.0803 -11.3082L17.9302 0.497557ZM19.395 9.57815L8.48996 4.57007L3.84153 14.6919L13.5896 20.0804L19.395 9.57815ZM20.5077 7.15519L31.4127 12.1633L36.4846 1.11931L25.3773 -3.81235L20.5077 7.15519ZM18.9917 6.48206L23.8613 -4.48548L13.0316 -9.29388L8.08659 1.47413L18.9917 6.48206ZM17.9081 8.84153L13.0298 19.8052L23.8643 24.6261L28.8132 13.8495L17.9081 8.84153ZM16.6904 8.31802L5.78596 3.3087L0.617663 14.5592L12.0241 19.3736L16.6904 8.31802ZM17.7804 5.94518L28.6849 10.9545L33.7576 -0.0880468L22.6521 -5.02144L17.7804 5.94518ZM16.2657 5.27229L21.1374 -5.69432L10.308 -10.505L5.36131 0.26289L16.2657 5.27229ZM15.1532 7.69398L10.4896 18.7507L21.2035 23.2697L26.0576 12.7034L15.1532 7.69398ZM14.1832 7.27777L2.37736 5.12766L0.685426 14.4177L9.31703 18.2469L14.1832 7.27777ZM14.1853 7.26624L25.9911 9.41636L27.6808 0.138652L19.0655 -3.69656L14.1853 7.26624ZM12.0974 6.33678L16.9776 -4.62602L6.13536 -9.45263L1.18918 1.3356L12.0974 6.33678ZM11.375 7.9124L0.466787 2.91122L-4.69221 14.1636L6.71501 18.9706L11.375 7.9124ZM12.4755 8.40134L8.65758 -2.97509L-26.7878 8.92053L8.95972 19.8747L12.4755 8.40134ZM13.0514 9.4326L23.9583 14.4367L24.3384 13.6083L24.589 12.7319L13.0514 9.4326ZM11.785 12.1928L0.878188 7.18876L-4.19856 18.254L6.9387 23.1707L11.785 12.1928ZM11.9411 12.2742L7.05473 23.2343L18.166 2.01504L11.9411 12.2742ZM11.7805 12.2026L16.6669 1.24254L5.82849 -3.58963L0.875679 7.19421L11.7805 12.2026ZM10.0047 16.0691L20.5774 21.7453L20.7539 21.4166L20.9096 21.0775L10.0047 16.0691ZM9.21174 16.3045L14.764 5.66622L-15.7721 -10.2711L-1.74874 21.19L9.21174 16.3045ZM8.11007 15.814L13.1597 4.92816L3.93206 0.647761L-1.80179 9.04975L8.11007 15.814ZM6.99991 17.4407L-2.91195 10.6765L-11.0186 22.5554L2.11999 28.4037L6.99991 17.4407ZM8.9724 18.3188L13.8587 7.35866L13.8523 7.3558L8.9724 18.3188ZM10.051 18.809L20.9578 23.8132L25.9916 12.842L14.9909 7.87293L10.051 18.809ZM8.92638 21.2602L-1.9804 16.256L-7.04467 27.2936L4.05259 32.2259L8.92638 21.2602ZM10.4398 21.9329L5.566 32.8986L16.3992 37.7134L21.3454 26.9396L10.4398 21.9329ZM11.5528 19.5086L16.6474 8.64381L5.69452 3.50781L0.647149 14.5019L11.5528 19.5086ZM12.7575 20.0589L23.6625 25.0669L28.7315 14.0293L17.6333 9.09412L12.7575 20.0589ZM11.6492 22.4721L0.744222 17.464L-4.32764 28.508L6.77961 33.4396L11.6492 22.4721ZM13.1653 23.1452L8.29565 34.1127L19.12 38.9188L24.0679 28.1586L13.1653 23.1452ZM14.2883 20.7029L18.5479 9.4844L8.06871 5.5055L3.38574 15.6896L14.2883 20.7029ZM20.2617 19.6337L10.7793 12.2795L10.2818 12.921L9.87521 13.6236L20.2617 19.6337ZM19.4876 15.6165L19.3193 3.61766L-22.2023 4.19996L13.2296 25.8555L19.4876 15.6165ZM17.3992 18.0113L29.205 20.1614L6.49025 13.0119L17.3992 18.0113ZM12.4057 17.745L1.5004 12.7376L-3.56998 23.7799L7.53481 28.712L12.4057 17.745ZM13.8962 14.4989L18.7239 3.51284L7.91681 -1.23616L2.99094 9.49146L13.8962 14.4989ZM17.399 18.0126L5.59321 15.8625L28.3047 23.0193L17.399 18.0126ZM18.794 13.116L7.89571 8.09342L7.89147 8.10263L18.794 13.116ZM14.5758 13.0095L3.66773 8.00805L-1.38317 19.0241L9.68207 23.9663L14.5758 13.0095ZM15.926 10.0646L20.805 -0.898728L9.96366 -5.72339L5.01794 5.06324L15.926 10.0646ZM18.007 15.0769C17.9365 15.4643 17.7467 15.8467 17.4257 16.1708L34.4765 33.0607C38.1756 29.3263 40.6736 24.5662 41.6186 19.3771L18.007 15.0769ZM17.4257 16.1708C17.1015 16.498 16.6456 16.7608 16.0906 16.8755L20.9503 40.3784C26.0648 39.3209 30.7806 36.7918 34.4765 33.0607L17.4257 16.1708ZM16.0906 16.8755C15.5331 16.9908 14.9348 16.943 14.3852 16.7287L5.66558 39.0887C10.524 40.9833 15.8383 41.4354 20.9503 40.3784L16.0906 16.8755ZM14.3852 16.7287C13.8369 16.5149 13.402 16.1614 13.1127 15.754L-6.45392 29.6519C-3.41964 33.9238 0.805942 37.1936 5.66558 39.0887L14.3852 16.7287ZM13.1127 15.754C12.8259 15.3503 12.6951 14.9156 12.6866 14.5127L-11.3081 15.0162C-11.1975 20.2858 -9.49078 25.3763 -6.45392 29.6519L13.1127 15.754ZM12.6866 14.5127C12.6782 14.112 12.7894 13.7151 13.0217 13.3618L-7.03163 0.176039C-9.92505 4.57644 -11.4187 9.74444 -11.3081 15.0162L12.6866 14.5127ZM13.0217 13.3618C13.256 13.0054 13.6229 12.6823 14.1153 12.4755L4.82352 -9.65281C-0.000954082 -7.62699 -4.14027 -4.22124 -7.03163 0.176039L13.0217 13.3618ZM14.1153 12.4755C14.6111 12.2673 15.1931 12.1965 15.7801 12.3034L20.0803 -11.3082C14.9513 -12.2424 9.64457 -11.6772 4.82352 -9.65281L14.1153 12.4755ZM15.7801 12.3034C16.5742 12.448 17.2223 12.8868 17.6127 13.4365L37.1793 -0.461327C33.1129 -6.1864 26.9511 -10.0569 20.0803 -11.3082L15.7801 12.3034ZM17.6127 13.4365C17.995 13.9747 18.1004 14.5644 18.007 15.0769L41.6186 19.3771C42.8872 12.4117 41.2539 5.27521 37.1793 -0.461327L17.6127 13.4365ZM33.2693 17.6287C34.9244 12.8325 33.9576 8.05467 31.4069 4.43669C29.3557 1.52722 26.6578 -0.118483 25.2003 -0.924113L13.5896 20.0804C14.0067 20.311 12.8887 19.8218 11.7915 18.2656C11.1457 17.3495 10.4711 16.0106 10.2033 14.2983C9.93153 12.5599 10.1679 11 10.5822 9.7996L33.2693 17.6287ZM30.3 14.5862L31.4127 12.1633L9.6027 2.14711L8.48996 4.57007L30.3 14.5862ZM25.3773 -3.81235L23.8613 -4.48548L14.1221 17.4496L15.6381 18.1227L25.3773 -3.81235ZM8.08659 1.47413L7.00306 3.83359L28.8132 13.8495L29.8967 11.49L8.08659 1.47413ZM22.7865 -2.12211C22.2683 -2.35269 21.7551 -2.56942 21.3567 -2.73756L12.0241 19.3736C12.442 19.55 12.7524 19.6818 13.0298 19.8052L22.7865 -2.12211ZM27.5948 13.3273L28.6849 10.9545L6.876 0.93586L5.78596 3.3087L27.5948 13.3273ZM22.6521 -5.02144L21.1374 -5.69432L11.394 16.2389L12.9087 16.9118L22.6521 -5.02144ZM5.36131 0.26289L4.24881 2.68457L26.0576 12.7034L27.1701 10.2817L5.36131 0.26289ZM19.8168 -3.36272C19.4716 -3.50832 19.2464 -3.60385 19.0493 -3.69131L9.31703 18.2469C9.74742 18.4378 10.1722 18.6168 10.4896 18.7507L19.8168 -3.36272ZM25.989 9.42789L25.9911 9.41636L2.37945 5.11613L2.37736 5.12766L25.989 9.42789ZM19.0655 -3.69656L16.9776 -4.62602L7.21708 17.2996L9.30499 18.229L19.0655 -3.69656ZM1.18918 1.3356L0.466787 2.91122L22.2831 12.9136L23.0055 11.3379L1.18918 1.3356ZM11.375 7.9124C6.71501 18.9706 6.71491 18.9706 6.71482 18.9706C6.7148 18.9706 6.71471 18.9705 6.71466 18.9705C6.71455 18.9705 6.71447 18.9704 6.7144 18.9704C6.71426 18.9703 6.71419 18.9703 6.71418 18.9703C6.71416 18.9703 6.71441 18.9704 6.7149 18.9706C6.71589 18.971 6.71788 18.9719 6.72079 18.9731C6.72662 18.9755 6.73613 18.9796 6.74877 18.9849C6.77414 18.9956 6.81157 19.0115 6.85683 19.0307C6.94966 19.0702 7.06497 19.1195 7.17269 19.1661C7.29813 19.2203 7.34752 19.2426 7.33691 19.2378C7.3288 19.2341 7.30028 19.221 7.25774 19.2009C7.2239 19.1849 7.12941 19.1401 7.00348 19.0761C6.97662 19.0625 6.54991 18.8504 6.03831 18.5257C5.88367 18.4275 5.6253 18.2588 5.31786 18.0304C5.07522 17.8502 4.4588 17.3827 3.77955 16.6684C3.43624 16.3074 2.85687 15.6555 2.28516 14.736C1.7685 13.905 0.80264 12.1367 0.541889 9.65378C0.237758 6.75774 0.982614 3.4818 3.21153 0.77423C5.1535 -1.58477 7.451 -2.57016 8.65758 -2.97509L16.2935 19.7778C17.5006 19.3727 19.7985 18.387 21.7407 16.0278C23.9699 13.3199 24.7148 10.0436 24.4106 7.14717C24.1498 4.66382 23.1838 2.89512 22.6668 2.06364C22.0948 1.14362 21.515 0.491135 21.1711 0.129518C20.0565 -1.04253 18.9273 -1.71973 18.899 -1.73765C18.3745 -2.07058 17.9268 -2.29408 17.8721 -2.32185C17.6077 -2.45615 17.3752 -2.56221 17.2983 -2.5973C17.0844 -2.69487 16.8566 -2.79413 16.7027 -2.86069C16.5312 -2.93493 16.3651 -3.00582 16.2464 -3.05628C16.1859 -3.08201 16.135 -3.10357 16.0985 -3.11901C16.0802 -3.12675 16.0653 -3.13301 16.0546 -3.13755C16.0492 -3.13983 16.0448 -3.14167 16.0415 -3.14307C16.0399 -3.14376 16.0385 -3.14434 16.0374 -3.14481C16.0368 -3.14504 16.0364 -3.14525 16.0359 -3.14542C16.0357 -3.14551 16.0355 -3.14559 16.0354 -3.14566C16.0353 -3.1457 16.0352 -3.14574 16.0351 -3.14576C16.035 -3.14581 16.0349 -3.14585 11.375 7.9124ZM8.95972 19.8747C6.26342 19.0485 3.92571 17.2076 2.50024 14.6549L23.4544 2.95354C21.8137 0.0155066 19.1159 -2.11461 15.9914 -3.07206L8.95972 19.8747ZM2.50024 14.6549C1.06816 12.0904 0.686703 9.02596 1.51391 6.13327L24.589 12.7319C25.5364 9.41891 25.1017 5.90342 23.4544 2.95354L2.50024 14.6549ZM2.14459 4.42852L0.878188 7.18876L22.6919 17.1969L23.9583 14.4367L2.14459 4.42852ZM6.9387 23.1707C6.51876 22.9853 6.11035 22.7725 5.71621 22.5334L18.166 2.01504C17.6716 1.71501 17.1589 1.44787 16.6314 1.21499L6.9387 23.1707ZM16.8275 1.31413L16.6669 1.24254L6.89414 23.1627L7.05473 23.2343L16.8275 1.31413ZM0.875679 7.19421L-0.900117 11.0607L20.9096 21.0775L22.6854 17.211L0.875679 7.19421ZM-0.567879 10.3928C0.158932 9.03906 1.14424 7.85802 2.31805 6.90935L17.4038 25.5754C18.6961 24.531 19.7791 23.2322 20.5774 21.7453L-0.567879 10.3928ZM2.31805 6.90935C3.49113 5.96128 4.828 5.26466 6.24491 4.84408L13.0744 27.8519C14.6386 27.3875 16.1123 26.6191 17.4038 25.5754L2.31805 6.90935ZM6.24491 4.84408C7.66125 4.42366 9.13753 4.28473 10.5918 4.42599L8.2715 28.3136C9.87949 28.4698 11.5107 28.316 13.0744 27.8519L6.24491 4.84408ZM10.5918 4.42599C12.046 4.56725 13.4629 4.98714 14.764 5.66622L3.65945 26.9427C5.09722 27.6931 6.66353 28.1574 8.2715 28.3136L10.5918 4.42599ZM-1.74874 21.19C-2.35076 19.8393 -3.51662 16.5133 -2.16398 12.4851C-0.684271 8.07845 2.70254 5.98607 4.7472 5.1666C6.62858 4.41256 8.23608 4.32748 8.88444 4.30984C9.67689 4.28828 10.3107 4.35048 10.6701 4.39454C11.8486 4.53905 12.7552 4.8415 12.7922 4.85312C13.2345 4.99182 13.5701 5.12751 13.5934 5.13674C13.6934 5.17643 13.7654 5.20678 13.7886 5.2166C13.8186 5.22931 13.8366 5.23713 13.8379 5.2377C13.8395 5.2384 13.8211 5.23037 13.7775 5.21082C13.7369 5.19261 13.6874 5.17027 13.6312 5.14471C13.5183 5.09336 13.3996 5.0389 13.3058 4.99564C13.2597 4.97443 13.2216 4.95683 13.1956 4.94481C13.1827 4.93882 13.1728 4.93426 13.1666 4.93139C13.1636 4.92996 13.1614 4.92895 13.1602 4.9284C13.1596 4.92812 13.1593 4.92796 13.1592 4.92792C13.1591 4.9279 13.1591 4.92791 13.1592 4.92795C13.1593 4.92797 13.1593 4.92799 13.1594 4.92803C13.1594 4.92805 13.1595 4.92808 13.1595 4.92809C13.1596 4.92812 13.1597 4.92816 8.11007 15.814C3.06047 26.6998 3.06056 26.6999 3.06065 26.6999C3.06068 26.6999 3.06078 26.7 3.06085 26.7C3.06099 26.7001 3.06115 26.7002 3.06133 26.7002C3.06168 26.7004 3.0621 26.7006 3.06259 26.7008C3.06357 26.7013 3.06482 26.7019 3.06633 26.7026C3.06936 26.704 3.07343 26.7058 3.07849 26.7082C3.0886 26.7129 3.10266 26.7194 3.12012 26.7275C3.15496 26.7436 3.20375 26.7661 3.26191 26.7929C3.3764 26.8457 3.53535 26.9187 3.69926 26.9932C3.84924 27.0614 4.05795 27.1557 4.25109 27.2398C4.32443 27.2718 4.51822 27.3561 4.74208 27.4449C4.79468 27.4658 5.15299 27.6099 5.61031 27.7533C5.65488 27.7673 6.56707 28.0712 7.7491 28.2161C8.10932 28.2603 8.74393 28.3225 9.53701 28.301C10.186 28.2833 11.794 28.1982 13.6757 27.444C15.7207 26.6243 19.1078 24.5318 20.5876 20.1249C21.9403 16.0964 20.7744 12.77 20.1722 11.419L-1.74874 21.19ZM-1.80179 9.04975L-2.91195 10.6765L16.9118 24.205L18.0219 22.5782L-1.80179 9.04975ZM2.11999 28.4037L4.09248 29.2817L13.8523 7.3558L11.8798 6.47779L2.11999 28.4037ZM4.08606 29.2789C4.48294 29.4558 4.51852 29.4774 5.11115 29.7451L14.9909 7.87293C14.8767 7.82132 14.1945 7.50837 13.8587 7.35866L4.08606 29.2789ZM-0.855733 13.8048L-1.9804 16.256L19.8332 26.2644L20.9578 23.8132L-0.855733 13.8048ZM4.05259 32.2259L5.566 32.8986L15.3136 10.9672L13.8002 10.2945L4.05259 32.2259ZM21.3454 26.9396L22.4584 24.5154L0.647149 14.5019L-0.465822 16.9261L21.3454 26.9396ZM6.45807 30.3734C6.93053 30.595 7.40505 30.8117 7.88162 31.0236L17.6333 9.09412C17.3035 8.94743 16.9748 8.79733 16.6474 8.64381L6.45807 30.3734ZM1.85247 15.0508L0.744222 17.464L22.5543 27.4801L23.6625 25.0669L1.85247 15.0508ZM6.77961 33.4396L8.29565 34.1127L18.0349 12.1777L16.5189 11.5045L6.77961 33.4396ZM24.0679 28.1586L25.1909 25.7163L3.38574 15.6896L2.2627 18.1318L24.0679 28.1586ZM10.0287 31.9215C11.7127 32.5609 15.13 33.747 19.1049 33.3023C24.1918 32.7331 28.2496 29.7889 30.6481 25.6438L9.87521 13.6236C10.2908 12.9053 11.0814 11.8543 12.4177 10.9484C13.7877 10.0197 15.2259 9.58653 16.4363 9.4511C17.5478 9.32675 18.3277 9.46592 18.5768 9.51754C18.832 9.57041 18.8566 9.6016 18.5479 9.4844L10.0287 31.9215ZM29.7441 26.9879C31.0197 25.3431 31.9371 23.4403 32.4257 21.4006L9.08594 15.81C9.39569 14.5168 9.97651 13.3146 10.7793 12.2795L29.7441 26.9879ZM32.4257 21.4006C32.9143 19.3607 32.9592 17.2454 32.5642 15.1953L8.9977 19.7363C8.74837 18.4423 8.77615 17.1033 9.08594 15.81L32.4257 21.4006ZM32.5642 15.1953C32.1693 13.146 31.3462 11.2191 30.1664 9.53211L10.499 23.2869C9.76464 22.2368 9.24686 21.0294 8.9977 19.7363L32.5642 15.1953ZM30.1664 9.53211C28.9872 7.84606 27.4776 6.43607 25.7456 5.37745L13.2296 25.8555C12.1667 25.2059 11.2328 24.3361 10.499 23.2869L30.1664 9.53211ZM19.6559 27.6153C22.8025 27.5712 25.89 26.5111 28.4233 24.5345L13.6598 5.61262C15.3111 4.3242 17.3059 3.6459 19.3193 3.61766L19.6559 27.6153ZM28.4233 24.5345C30.9622 22.5536 32.7944 19.7648 33.5778 16.5829L10.2737 10.8454C10.7925 8.7382 12.003 6.90534 13.6598 5.61262L28.4233 24.5345ZM6.49025 13.0119C7.1437 11.586 8.1874 10.1761 9.65603 9.04319C11.091 7.93618 12.5689 7.37163 13.7662 7.10133C15.9089 6.61754 17.4708 6.99628 17.7182 7.05444C18.1307 7.15142 18.6076 7.36923 17.2766 6.77807L7.53481 28.712C7.2291 28.5762 9.78294 29.8433 12.226 30.4176C13.4887 30.7144 16.0542 31.1888 19.0518 30.5121C22.6925 29.6901 26.3617 27.2583 28.3082 23.0107L6.49025 13.0119ZM23.311 22.7525L24.8015 19.5064L2.99094 9.49146L1.5004 12.7376L23.311 22.7525ZM9.06858 25.485C9.33803 25.6034 9.70085 25.7525 9.76292 25.7784C9.91463 25.8416 9.9964 25.8769 10.0546 25.9032C10.2295 25.9823 10.0066 25.899 9.60987 25.629C9.36688 25.4636 7.92245 24.4904 6.80465 22.418C6.17919 21.2584 5.63779 19.7135 5.55467 17.8731C5.47053 16.0097 5.87952 14.343 6.49335 13.0059L28.3047 23.0193C30.1915 18.9093 29.8116 14.5171 27.9279 11.0247C26.3963 8.18502 24.2143 6.53755 23.1145 5.78899C21.0486 4.38276 18.1974 3.28148 18.7239 3.51284L9.06858 25.485ZM29.2048 20.1627L29.205 20.1614L5.59344 15.8612L5.59321 15.8625L29.2048 20.1627ZM7.89147 8.10263C8.48632 6.80901 9.4267 5.47674 10.7832 4.35563C12.127 3.24494 13.5594 2.60505 14.8184 2.26678C17.1066 1.65198 18.854 2.01364 19.2924 2.10991C20.0021 2.26576 20.7851 2.64026 19.4695 2.05266L9.68207 23.9663C9.222 23.7608 11.7312 25.0213 14.1446 25.5513C15.4349 25.8347 18.0286 26.2554 21.0459 25.4448C24.6746 24.4698 27.9388 21.9521 29.6966 18.1294L7.89147 8.10263ZM25.4839 18.0109L26.8341 15.066L5.01794 5.06324L3.66773 8.00805L25.4839 18.0109ZM11.047 21.028C11.3331 21.1553 11.6906 21.3017 11.7232 21.3153C11.8503 21.3681 11.8894 21.3855 11.9014 21.3909C11.9868 21.4295 11.6225 21.2787 11.091 20.9059C10.6887 20.6236 9.12353 19.4924 8.01232 17.2064C7.40126 15.9494 6.95341 14.3866 6.93655 12.6161C6.9197 10.8474 7.33703 9.30569 7.89571 8.09342L29.6924 18.1386C31.3918 14.451 31.3395 10.2982 29.5972 6.71386C28.1578 3.75277 25.9869 2.03908 24.8752 1.25906C22.8999 -0.126749 20.0023 -1.25593 20.805 -0.898728L11.047 21.028Z" fill="white" mask="url(#path-1-inside-1)"/>
</svg>
