<svg width="946" height="946" viewBox="0 0 946 946" fill="none" xmlns="http://www.w3.org/2000/svg">
<circle cx="473" cy="473" r="473" fill="#E3EEFC"/>
<g clip-path="url(#clip0)">
<path d="M675.962 495.838C675.961 495.836 675.961 495.835 675.96 495.833L599.016 302.633C597.383 298.528 592.73 296.524 588.625 298.157C588.622 298.158 588.619 298.159 588.616 298.161L276.464 422.457C275.191 423.007 274.087 423.885 273.264 425.001C270.668 426.35 269.028 429.02 269 431.945V639.945C269 644.363 272.582 647.945 277 647.945H613C617.418 647.945 621 644.363 621 639.945V526.345L671.496 506.233C675.6 504.596 677.599 499.942 675.962 495.838ZM605 631.945H285V439.945H605V631.945ZM402.48 423.985L536.432 370.609C548.387 383.175 564.952 390.317 582.296 390.385L595.656 423.985H402.48ZM621 509.161V431.945C621 427.527 617.418 423.945 613 423.945H612.872L595.92 381.369C595.732 381.014 595.513 380.676 595.264 380.361C594.406 376.508 590.838 373.879 586.904 374.201C570.766 375.672 554.979 368.874 544.96 356.137C542.467 353.06 538.085 352.295 534.696 354.345C534.316 354.39 533.939 354.46 533.568 354.553L370.032 419.673C368.053 420.449 366.47 421.988 365.64 423.945H315.976L587.112 315.985L658.144 494.345L621 509.161Z" fill="#038CCC"/>
<path d="M306.712 577.937C322.244 582.528 334.398 594.667 339.008 610.193C340.019 613.582 343.136 615.904 346.672 615.905C347.087 615.879 347.499 615.817 347.904 615.721C348.263 615.823 348.63 615.898 349 615.945H541C541.33 615.902 541.656 615.835 541.976 615.745C545.973 616.717 550.001 614.266 550.974 610.269C550.977 610.254 550.981 610.24 550.984 610.225C555.582 594.683 567.738 582.527 583.28 577.929C587.049 576.777 589.391 573.021 588.768 569.129C588.875 568.741 588.952 568.345 589 567.945V503.945C588.953 503.544 588.873 503.148 588.76 502.761C589.387 498.868 587.044 495.11 583.272 493.961C567.73 489.364 555.577 477.203 550.992 461.657C549.834 457.862 546.041 455.514 542.128 456.169C541.758 456.066 541.381 455.991 541 455.945H349C348.597 455.993 348.198 456.073 347.808 456.185C343.917 455.565 340.163 457.906 339.008 461.673C334.407 477.212 322.252 489.364 306.712 493.961C302.943 495.113 300.601 498.869 301.224 502.761C301.12 503.15 301.045 503.545 301 503.945V567.945C301.046 568.321 301.121 568.693 301.224 569.057C300.568 572.974 302.915 576.772 306.712 577.937ZM317 507.193C333.064 500.741 345.796 488.009 352.248 471.945H537.744C544.199 488.009 556.934 500.741 573 507.193V564.697C556.941 571.156 544.211 583.886 537.752 599.945H352.248C345.789 583.886 333.059 571.156 317 564.697V507.193Z" fill="#038CCC"/>
<path d="M445 583.945C471.51 583.945 493 562.455 493 535.945C493 509.435 471.51 487.945 445 487.945C418.49 487.945 397 509.435 397 535.945C397.026 562.444 418.501 583.919 445 583.945ZM445 503.945C462.673 503.945 477 518.272 477 535.945C477 553.618 462.673 567.945 445 567.945C427.327 567.945 413 553.618 413 535.945C413 518.272 427.327 503.945 445 503.945Z" fill="#038CCC"/>
<path d="M357 547.945C363.627 547.945 369 542.572 369 535.945C369 529.318 363.627 523.945 357 523.945C350.373 523.945 345 529.318 345 535.945C345 542.573 350.373 547.945 357 547.945ZM357 531.945C359.209 531.945 361 533.736 361 535.945C361 538.154 359.209 539.945 357 539.945C354.791 539.945 353 538.154 353 535.945C353 533.736 354.791 531.945 357 531.945Z" fill="#038CCC"/>
<path d="M533 547.945C539.627 547.945 545 542.572 545 535.945C545 529.318 539.627 523.945 533 523.945C526.373 523.945 521 529.318 521 535.945C521 542.573 526.373 547.945 533 547.945ZM533 531.945C535.209 531.945 537 533.736 537 535.945C537 538.154 535.209 539.945 533 539.945C530.791 539.945 529 538.154 529 535.945C529 533.736 530.791 531.945 533 531.945Z" fill="#038CCC"/>
</g>
<defs>
<clipPath id="clip0">
<rect width="407.534" height="407.534" fill="white" transform="translate(269 269)"/>
</clipPath>
</defs>
</svg>
