
<svg id="_x31__x2C_5" enable-background="new 0 0 36 36" height="512" viewBox="0 0 36 36" width="512" xmlns="http://www.w3.org/2000/svg"><path d="m27.623 31.833c-6.917 0-11.667 3.583-15 3.583s-10.333-1.916-10.333-17.249 9.417-17.584 13.083-17.584c17.167 0 24.5 31.25 12.25 31.25z" fill="#efefef"/><path d="m27.625 3.25h1v2h-1z" fill="#a4afc1"/><path d="m29.875 6.25h2v1h-2z" fill="#a4afc1"/><path d="m8.75 29.25c-1.1 0-2-.9-2-2v-15.5c0-1.1.9-2 2-2h12.5c1.1 0 2 .9 2 2v15.5c0 1.105-.895 2-2 2z" fill="#f3f3f1"/><path d="m19.25 8.75v2c0 .552-.448 1-1 1h-6.5c-.552 0-1-.448-1-1v-2h2.25c0-1.1.9-2 2-2s2 .9 2 2z" fill="#2fdf84"/><path d="m9.75 14.75h3.5v3.5h-3.5z" fill="#2fdf84"/><path d="m9.75 22.75h3.5v3.5h-3.5z" fill="#2fdf84"/><circle cx="23.5" cy="23.5" fill="#2fdf84" r="5.75"/><g fill="#00b871"><path d="m16.125 7.1c-.321-.22-.708-.35-1.125-.35-1.1 0-2 .9-2 2h2.25c0-.683.348-1.289.875-1.65z"/><path d="m13 10.75v-2h-2.25v2c0 .552.448 1 1 1h2.25c-.552 0-1-.448-1-1z"/><path d="m9.75 14.75h2.25v3.5h-2.25z"/><path d="m9.75 22.75h2.25v3.5h-2.25z"/><path d="m20 23.5c0-2.79 1.988-5.115 4.625-5.638-.364-.072-.74-.112-1.125-.112-3.176 0-5.75 2.574-5.75 5.75s2.574 5.75 5.75 5.75c.385 0 .761-.039 1.125-.112-2.637-.523-4.625-2.848-4.625-5.638z"/></g><path d="m9 27.25v-15.5c0-1.1.9-2 2-2h-2.25c-1.1 0-2 .9-2 2v15.5c0 1.1.9 2 2 2h2.25c-1.1 0-2-.9-2-2z" fill="#d5dbe1"/><path d="m13.25 19h-3.5c-.414 0-.75-.336-.75-.75v-3.5c0-.414.336-.75.75-.75h3.5c.414 0 .75.336.75.75v3.5c0 .414-.336.75-.75.75zm-2.75-1.5h2v-2h-2z"/><path d="m13.25 27h-3.5c-.414 0-.75-.336-.75-.75v-3.5c0-.414.336-.75.75-.75h3.5c.414 0 .75.336.75.75v3.5c0 .414-.336.75-.75.75zm-2.75-1.5h2v-2h-2z"/><path d="m15.75 14.5h5.5v1.5h-5.5z"/><path d="m23.5 30c-3.584 0-6.5-2.916-6.5-6.5s2.916-6.5 6.5-6.5 6.5 2.916 6.5 6.5-2.916 6.5-6.5 6.5zm0-11.5c-2.757 0-5 2.243-5 5s2.243 5 5 5 5-2.243 5-5-2.243-5-5-5z"/><path d="m22.5 26.25c-.198 0-.39-.079-.53-.22l-2-2 1.061-1.061 1.434 1.433 2.972-3.396 1.129.987-3.5 4c-.137.156-.332.249-.539.256-.01.001-.019.001-.027.001z"/><path d="m24 14.76h-1.5v-3.01c0-.689-.561-1.25-1.25-1.25h-1.88v-1.5h1.88c1.517 0 2.75 1.234 2.75 2.75z"/><path d="m16.91 30h-8.16c-1.517 0-2.75-1.233-2.75-2.75v-15.5c0-1.517 1.233-2.75 2.75-2.75h1.88v1.5h-1.88c-.689 0-1.25.561-1.25 1.25v15.5c0 .689.561 1.25 1.25 1.25h8.16z"/><path d="m18.25 12.5h-6.5c-.965 0-1.75-.785-1.75-1.75v-2c0-.414.336-.75.75-.75h1.604c.328-1.153 1.39-2 2.646-2s2.318.847 2.646 2h1.604c.414 0 .75.336.75.75v2c0 .965-.785 1.75-1.75 1.75zm-6.75-3v1.25c0 .138.112.25.25.25h6.5c.138 0 .25-.112.25-.25v-1.25h-1.5c-.414 0-.75-.336-.75-.75 0-.689-.561-1.25-1.25-1.25s-1.25.561-1.25 1.25c0 .414-.336.75-.75.75z"/></svg>