<svg width="34" height="60" viewBox="0 0 34 60" fill="none" xmlns="http://www.w3.org/2000/svg">
<path fill-rule="evenodd" clip-rule="evenodd" d="M7.00725 29.0117C3.45909 24.7692 1.05823 19.5705 1.4594 13.7452C2.6144 -3.03988 25.5542 0.652044 30.0164 9.12378C34.4785 17.5955 33.948 39.0859 28.1815 40.5997C25.8815 41.2036 20.9828 39.7243 15.9962 36.663L19.1255 59.2169H0.645508L7.00725 29.0117Z" fill="#B28B67"/>
<path fill-rule="evenodd" clip-rule="evenodd" d="M16.9199 15.5986C17.6272 25.6383 19.4983 30.6581 22.5332 30.6581C27.0862 30.6581 30.9485 27.7136 32.9466 27.7136C34.4027 27.7136 34.0778 29.5702 33.1122 30.9459C32.3168 32.0785 28.4383 33.1766 28.4383 34.9336C28.4383 36.6905 31.5021 35.332 31.5021 36.376C31.5021 38.1015 32.0411 41.3503 29.0982 41.3503C26.1198 41.3503 17.5821 40.2452 16.1183 35.743C15.1738 32.8373 14.5631 26.8164 14.2865 17.6803C13.638 17.601 12.9803 17.6627 12.3569 17.8613C11.7335 18.0599 11.1586 18.3908 10.67 18.8324C10.1814 19.2739 9.79021 19.8159 9.52234 20.4227C9.25446 21.0295 9.11594 21.6873 9.11591 22.3526C9.1152 22.9801 9.23804 23.6013 9.47717 24.1795C9.71629 24.7577 10.0668 25.2812 10.5081 25.7191C9.43931 27.2564 8.24119 28.8619 6.86828 30.5185C1.70928 27.3662 -2.11608 18.1399 2.92588 9.27598C4.31958 4.93384 7.47504 2.61452 11.2011 1.53761C13.9763 0.312631 17.0768 0.0798789 19.9983 0.87719C25.1835 1.33054 29.8135 2.94081 31.1256 3.89693C31.1256 8.89715 30.1746 10.3811 22.0504 10.2501C20.0499 11.3247 18.5184 13.1758 16.9199 15.5986Z" fill="#191847"/>
</svg>
