<svg width="567" height="338" viewBox="0 0 567 338" fill="none" xmlns="http://www.w3.org/2000/svg">
<path fill-rule="evenodd" clip-rule="evenodd" d="M100.462 42.1955C98.4778 40.0563 96.9355 37.5467 95.9231 34.8105C94.9106 32.0743 94.4481 29.1651 94.5619 26.2498C95.7917 8.72429 120.187 12.5806 124.932 21.4258C129.677 30.2711 129.113 52.7068 122.98 54.2885C120.535 54.919 115.324 53.3721 110.022 50.1775L113.35 73.7257H93.6949L100.462 42.1955Z" fill="#B28B67"/>
<path fill-rule="evenodd" clip-rule="evenodd" d="M133.636 9.16783C133.449 8.44683 133.075 7.78777 132.553 7.25668C132.03 6.72558 131.377 6.34112 130.659 6.14182C130.3 6.05406 129.93 6.01766 129.56 6.03369C129.428 6.03369 129.391 6.07767 129.329 5.9842C129.293 5.88246 129.271 5.77647 129.263 5.66895C129.205 5.41999 129.131 5.17509 129.041 4.93582C128.72 4.11863 128.224 3.38167 127.588 2.77674C126.402 1.60209 124.849 0.86865 123.189 0.698311C122.293 0.633835 121.393 0.75873 120.548 1.06488C120.108 1.21938 119.68 1.40308 119.265 1.61473C119.14 1.67705 118.733 1.9813 118.609 1.9648C118.484 1.9483 118.191 1.59823 118.079 1.51209C116.673 0.49088 114.966 -0.0292858 113.229 0.0348269C111.31 -0.135675 109.387 0.323016 107.751 1.34164C107.406 1.59577 107.076 1.86995 106.763 2.16275C106.598 2.3167 106.439 2.47616 106.285 2.64111C106.193 2.74131 106.104 2.84395 106.017 2.94903C105.87 3.13231 105.894 3.18547 105.689 3.06083C104.909 2.57518 103.987 2.36782 103.074 2.47249C102.529 2.54616 101.998 2.69609 101.495 2.91787C101.323 2.99118 100.927 3.28444 100.744 3.28444C100.561 3.28444 100.172 3.01684 99.9852 2.9472C98.9764 2.57998 97.8899 2.47959 96.8309 2.65578C95.7269 2.84442 94.6737 3.25872 93.7371 3.87278C93.2933 4.14559 92.9047 4.49935 92.5916 4.91566C92.4559 5.09894 92.335 5.29872 92.1828 5.46551C92.093 5.56632 91.9171 5.67079 91.8676 5.79725C91.4562 5.56188 91.0213 5.37023 90.5699 5.22541C89.9611 5.06845 89.3196 5.09266 88.7243 5.29506C87.5992 5.73411 86.6001 6.44429 85.8156 7.36249C85.4046 7.80374 85.0432 8.28866 84.7379 8.80859C84.5912 9.05297 84.4568 9.30774 84.3346 9.57289C84.2839 9.70997 84.2226 9.84294 84.1514 9.97061C84.0506 10.1172 83.9827 10.1209 83.7995 10.1851C82.8668 10.5056 82.0337 11.0633 81.3819 11.8034C80.7353 12.5598 80.303 13.4756 80.1301 14.4555C80.127 14.5659 80.1104 14.6755 80.0806 14.7818C80.0348 14.824 79.8479 14.8056 79.7782 14.8148C79.5315 14.8432 79.2868 14.8861 79.0451 14.9431C78.6013 15.0472 78.1709 15.2015 77.7621 15.4031C76.1985 16.2213 75.0228 17.6258 74.4923 19.3089C73.894 21.0756 73.9381 22.9967 74.617 24.7341C74.7289 25.0094 74.8638 25.2749 75.0202 25.5277C75.1173 25.6835 75.1485 25.6835 75.0843 25.8448C75.0202 26.0061 74.8864 26.2022 74.8039 26.3781C74.5361 26.9565 74.3415 27.566 74.2247 28.1926C73.9975 29.2228 73.964 30.2862 74.1258 31.3286C74.2115 31.8106 74.375 32.2754 74.6096 32.7051C74.7309 32.9233 74.8727 33.1295 75.033 33.3209C75.1155 33.4199 75.2053 33.5152 75.2969 33.605C75.3558 33.6533 75.4115 33.7053 75.4637 33.7608C75.5737 33.9019 75.5975 33.7864 75.5407 33.9935C75.433 34.2854 75.3107 34.5717 75.1741 34.8513C75.0605 35.1421 74.9573 35.4366 74.8644 35.7347C74.6699 36.334 74.5193 36.9465 74.4135 37.5676C74.1661 38.7721 74.3092 40.0241 74.8222 41.1416C75.0659 41.6131 75.4115 42.0244 75.834 42.3458C76.0412 42.5029 76.2641 42.638 76.4993 42.749C76.6203 42.8058 76.7742 42.8315 76.8292 42.9469C76.8842 43.0624 76.7999 43.3135 76.7797 43.462C76.5444 44.6857 76.5788 45.946 76.8805 47.1551C77.2245 48.2628 77.9356 49.2202 78.8966 49.8695C79.8365 50.4492 80.9125 50.7713 82.0163 50.8035C83.1201 50.8357 84.213 50.5768 85.1851 50.0528C85.6927 49.7935 86.1647 49.4694 86.589 49.0887C87.2226 49.6991 88.0168 50.1165 88.8789 50.2921C89.741 50.4677 90.6352 50.3942 91.457 50.0803C92.4151 49.8196 93.3066 49.3579 94.0724 48.7259C94.8381 48.0938 95.4604 47.3059 95.898 46.4146C96.2197 46.749 96.6156 47.0029 97.0537 47.156C97.4917 47.309 97.9596 47.3569 98.4195 47.2957C98.8795 47.2345 99.3186 47.0659 99.7014 46.8037C100.084 46.5414 100.4 46.1928 100.623 45.786C100.828 45.3843 100.962 44.9503 101.019 44.503C101.052 44.2684 101.03 44.0301 101.056 43.7974C101.132 43.493 101.247 43.1998 101.398 42.9249C101.627 42.3723 101.752 41.7819 101.765 41.1837C101.759 40.8712 101.737 40.5592 101.699 40.249C101.695 39.9723 101.727 39.6963 101.794 39.4279C101.256 39.4769 100.714 39.4094 100.205 39.2299C99.7318 39.0453 99.3104 38.7484 98.9771 38.3649C98.2452 37.5338 97.7157 36.5445 97.4302 35.4745C96.9596 34.3703 96.891 33.136 97.2363 31.9864C97.5815 30.8368 98.3188 29.8446 99.3199 29.1824C101.125 28.6445 103.031 28.5439 104.883 28.8891C106.226 29.1934 107.749 32.157 107.815 32.4356C107.861 32.6079 107.839 32.8205 107.998 32.936C108.347 33.1889 108.915 32.7527 109.177 32.5346C109.603 32.1445 109.953 31.6783 110.209 31.16C110.808 30.0552 111.283 28.8872 111.626 27.6776C111.888 26.752 112.054 25.7971 112.397 24.8954C112.703 23.9876 113.306 23.2094 114.109 22.6868C115.046 22.1864 116.033 21.7864 117.054 21.4936C118.06 21.1957 118.989 20.685 119.78 19.9962C119.951 19.8375 120.108 19.6633 120.247 19.4757C120.353 19.3254 120.46 19.0395 120.614 18.946C120.867 18.7994 121.237 19.1824 121.457 19.3126C122.529 20.0217 123.45 20.9361 124.168 22.0032C124.883 23.002 125.487 24.0763 125.967 25.2069C126.226 26.1564 126.634 27.0585 127.177 27.8792C128.145 28.2652 129.208 28.3458 130.223 28.1102C130.905 27.8024 131.483 27.3024 131.886 26.6714C132.111 26.2176 132.176 25.7005 132.069 25.2051C132.01 24.91 131.886 24.6333 131.827 24.3437C131.784 24.1024 131.709 23.8681 131.603 23.6472C131.493 23.4389 131.341 23.2555 131.156 23.1085C130.972 22.9616 130.759 22.8542 130.531 22.7931C131.016 22.3502 131.409 21.8165 131.688 21.2224C131.995 20.5767 132.198 19.8863 132.289 19.1769C132.36 18.6238 132.243 18.0629 131.957 17.5842C131.589 17.1155 131.126 16.7307 130.597 16.4552C131.342 15.8775 131.989 15.1845 132.514 14.4024C133.066 13.6614 133.451 12.8104 133.645 11.9072C133.839 11.004 133.835 10.0697 133.636 9.16783Z" fill="#191847"/>
<path fill-rule="evenodd" clip-rule="evenodd" d="M87.1519 141.718L126.525 245.904L154.122 322.699H169.858L131.922 141.718H87.1519Z" fill="#1F28CF"/>
<path fill-rule="evenodd" clip-rule="evenodd" d="M78.1502 142.009C77.7232 177.749 78.0311 225.887 77.034 228.116C76.3693 229.601 55.6913 246.525 15 278.885L23.1103 292.677C71.4201 261.519 96.8103 243.866 99.281 239.719C102.985 233.488 121.599 176.199 131.282 142L78.1502 142.009Z" fill="#2B44FF"/>
<path fill-rule="evenodd" clip-rule="evenodd" d="M-4.19599e-05 287.889L13.7 277.459L24.7568 290.63C25.6074 300.56 28.8959 311.7 34.6223 324.051L32.1191 326.152L12.1103 302.316L6.52068 293.108L5.26555 294.162L-4.19599e-05 287.889Z" fill="#191847"/>
<path fill-rule="evenodd" clip-rule="evenodd" d="M152.665 337.435L153.484 320.238H170.68C178.833 325.97 189.479 330.613 202.617 334.167V337.443H171.499L160.854 335.797V337.435H152.665Z" fill="#191847"/>
<path fill-rule="evenodd" clip-rule="evenodd" d="M157.577 109.206L189.91 104.796C195.497 101.554 201.503 99.0959 207.759 97.4902C209.288 97.4462 211.72 98.0016 208.097 101.022C204.473 104.043 200.798 107.384 201.444 108.995C202.089 110.606 205.457 110.007 206.016 112.477C206.383 114.13 200.915 114.399 189.613 113.284L163.377 123.685L157.577 109.206ZM56.0083 116.691L73.9407 116.759C54.2769 161.006 44.024 184.173 43.1821 186.26C41.287 190.955 45.2972 198.107 47.0128 201.951C41.4281 204.451 42.0238 195.195 34.9784 198.468C28.547 201.459 23.657 206.881 16.2267 202.297C15.3103 201.733 14.3114 199.612 16.7307 197.953C22.7552 193.822 31.4392 186.59 32.6122 184.207C34.2104 180.967 42.0091 158.461 56.0083 116.691Z" fill="#997659"/>
<path fill-rule="evenodd" clip-rule="evenodd" d="M105.125 59.8189L119.164 60.7546C122.621 92.0381 141.457 111.797 183.624 105.108L189.227 145.394C149.812 150.486 115.249 134.706 108.165 91.9894C106.192 81.3783 105.175 70.6117 105.125 59.8189H105.125Z" fill="#AFB9C5"/>
<path fill-rule="evenodd" clip-rule="evenodd" d="M98.1964 55.7364L119.47 60.6081C119.47 97.1951 131.125 120.542 137.102 147.44H79.6518C78.8435 156.736 78.345 166.289 78.0865 176.102H35.0681C44.8163 124.235 65.3911 84.1093 96.7924 55.7236H98.1854L98.1964 55.7364Z" fill="#C5CFD6"/>
<path fill-rule="evenodd" clip-rule="evenodd" d="M88.7152 95.2431C87.2355 118.042 88.1061 135.441 91.327 147.44H79.6464C81.0209 129.795 84.0573 112.318 88.7152 95.2431Z" fill="black" fill-opacity="0.1"/>
<path d="M222 50C222 53.9556 220.798 57.8224 218.545 61.1114C216.293 64.4004 213.091 66.9638 209.345 68.4776C205.599 69.9913 201.477 70.3874 197.501 69.6157C193.524 68.844 189.871 66.9392 187.004 64.1421C184.137 61.3451 182.185 57.7814 181.394 53.9018C180.603 50.0222 181.009 46.0008 182.56 42.3463C184.112 38.6918 186.74 35.5682 190.111 33.3706C193.482 31.173 197.445 30 201.5 30C206.937 30 212.151 32.1071 215.996 35.8579C219.84 39.6086 222 44.6957 222 50ZM210.292 47.1488C210.699 44.4885 208.615 43.0565 205.782 42.1025L206.704 38.4972L204.454 37.952L203.556 41.4628C202.966 41.3193 202.357 41.183 201.753 41.0485L202.657 37.5177L200.409 36.9726L199.487 40.576C198.997 40.467 198.516 40.3598 198.05 40.2471V40.2308L194.951 39.4766L194.353 41.8208C194.353 41.8208 196.029 42.1933 195.987 42.217C196.297 42.2535 196.58 42.407 196.776 42.6447C196.972 42.8824 197.065 43.1854 197.035 43.489L195.987 47.5959C196.066 47.615 196.145 47.6393 196.221 47.6685L195.983 47.6104L194.511 53.3636C194.479 53.4639 194.427 53.557 194.357 53.6375C194.288 53.718 194.203 53.7844 194.107 53.8329C194.012 53.8813 193.907 53.9109 193.8 53.9198C193.692 53.9288 193.584 53.917 193.481 53.8851C193.504 53.9179 191.846 53.4872 191.846 53.4872L190.728 55.9985L193.657 56.7109C194.2 56.8435 194.735 56.9835 195.26 57.1143L194.329 60.7614L196.575 61.3066L197.497 57.6994C198.093 57.8569 198.691 58.0084 199.289 58.1537L198.371 61.7445L200.621 62.2897L201.552 58.6553C205.387 59.364 208.272 59.0787 209.487 55.6933C209.735 55.2155 209.879 54.6924 209.908 54.1575C209.938 53.6226 209.852 53.0875 209.658 52.5866C209.463 52.0856 209.164 51.6298 208.778 51.2483C208.393 50.8667 207.93 50.5678 207.419 50.3707C208.195 50.2181 208.898 49.8193 209.417 49.2366C209.937 48.6538 210.244 47.9198 210.292 47.1488ZM205.151 54.1814C204.456 56.9071 199.749 55.4334 198.227 55.0645L199.462 50.2344C200.988 50.5979 205.877 51.3411 205.151 54.1832V54.1814ZM205.842 47.1107C205.207 49.5893 201.293 48.33 200.023 48.0193L201.141 43.638C202.418 43.9488 206.507 44.5248 205.842 47.1107Z" fill="#F9D369"/>
<path d="M225.991 145.993L210.006 155.599L194 145.993L210 119L225.991 145.993ZM210.006 158.682L194 149.078L210 172L226 149.084L210 158.684L210.006 158.682Z" fill="black"/>
<path fill-rule="evenodd" clip-rule="evenodd" d="M498.421 75.6758C500.515 73.4159 502.144 70.7652 503.213 67.8753C504.282 64.9854 504.771 61.913 504.652 58.8339C503.353 40.3223 477.578 44.3912 472.563 53.7368C467.548 63.0824 468.144 86.7883 474.625 88.458C477.209 89.1233 482.715 87.4921 488.318 84.116L484.803 108.997H505.569L498.421 75.6758Z" fill="#B28B67"/>
<path fill-rule="evenodd" clip-rule="evenodd" d="M513.707 52.6701C514.339 51.9427 514.801 51.0837 515.059 50.1555C515.404 49.2214 515.693 48.2679 515.926 47.2999C516.234 46.344 516.309 45.3282 516.144 44.3375C515.98 43.3467 515.58 42.4099 514.979 41.6053C513.82 40.4642 512.278 39.7963 510.653 39.7322C509.615 39.6598 508.574 39.7918 507.587 40.1207C506.61 40.4415 505.767 41.0811 504.821 41.4788C504.861 39.359 504.356 37.2643 503.355 35.3957C502.88 34.5908 502.227 33.9063 501.444 33.3957C500.662 32.8851 499.772 32.5622 498.844 32.4522C496.941 32.2205 495.013 32.606 493.346 33.5518C492.919 33.7828 492.495 34.0247 492.088 34.2996C491.761 34.5635 491.388 34.7665 490.989 34.899C490.545 35.0035 490.325 34.7469 490.036 34.4224C489.7 34.0506 489.326 33.7146 488.921 33.4199C488.058 32.7435 487.04 32.2923 485.96 32.1067C484.879 31.9212 483.769 32.0071 482.73 32.3568C481.736 32.7237 480.863 33.358 480.206 34.1897C479.631 34.9448 479.22 36.1435 478.425 36.6695C478.087 36.8931 477.849 36.5962 477.541 36.3781C477.079 36.05 476.639 35.6871 476.174 35.3664C475.532 34.916 474.81 34.5902 474.048 34.4059C472.935 34.1494 471.397 34.208 471.079 35.6669C471.003 36.2261 471.007 36.7931 471.09 37.3513C471.143 38.1083 471.198 38.8671 471.264 39.6222C471.308 40.1902 471.382 40.7554 471.485 41.3157C471.614 41.6888 471.652 42.0872 471.595 42.4777C471.434 42.8535 470.69 42.6409 470.373 42.661C469.742 42.6743 469.119 42.8113 468.54 43.0642C468.296 43.1541 468.072 43.2912 467.881 43.4676C467.691 43.644 467.536 43.8564 467.428 44.0925C467.331 44.4065 467.321 44.7406 467.396 45.0602C467.435 45.3922 467.415 45.7284 467.338 46.0536C466.489 45.6229 463.569 44.701 463.201 46.2112C463.153 46.7367 463.282 47.2632 463.568 47.7068C463.955 48.4392 464.412 49.1327 464.931 49.7779C465.973 51.1103 467.193 52.2937 468.557 53.2951C468.186 53.4546 467.862 53.7055 467.615 54.0243C467.368 54.3431 467.206 54.7194 467.144 55.118C467.082 55.5165 467.123 55.9242 467.261 56.303C467.4 56.6817 467.632 57.019 467.937 57.2834C468.546 57.7707 469.324 57.9961 470.1 57.9102C470.395 57.8584 470.695 57.8344 470.994 57.8387C471.124 57.8973 471.26 57.9428 471.399 57.9743C472.519 57.9885 473.635 57.8466 474.715 57.5528C476.605 57.132 478.349 56.2168 479.77 54.9007C479.915 54.7331 480.095 54.5986 480.297 54.506C480.498 54.4134 480.717 54.3648 480.939 54.3637C481.374 54.3637 481.801 54.4865 482.235 54.4975C483.366 54.3953 484.468 54.0879 485.488 53.5902C485.577 55.0856 485.938 56.5522 486.555 57.9175C487.035 58.9751 488.041 59.129 489.028 59.2225C492.184 59.5194 495.353 59.1877 498.512 59.1932C495.453 59.8842 492.29 60.1701 489.258 60.9839C487.887 61.3504 488.934 62.2668 489.521 62.9157C490.485 64.0073 491.226 65.2776 491.702 66.6546C492.426 65.6507 493.419 64.8709 494.566 64.4045C495.713 63.9381 496.968 63.8039 498.188 64.0172C498.854 64.2121 499.467 64.5542 499.983 65.0182C500.499 65.4823 500.904 66.0564 501.168 66.698C501.432 67.3396 501.548 68.0324 501.508 68.7251C501.468 69.4178 501.273 70.0926 500.937 70.6997C499.846 71.9705 498.406 72.8933 496.795 73.3536C497.722 74.6837 498.424 76.1567 498.873 77.7139C499.137 78.4886 499.695 79.1285 500.426 79.4955C500.722 79.5352 501.003 79.6472 501.245 79.8217C501.516 80.1003 501.581 80.4137 501.925 80.6538C502.643 81.1382 503.503 81.3655 504.366 81.299C505.229 81.2324 506.045 80.8759 506.68 80.2872C507.155 79.7102 507.405 78.9811 507.386 78.2339C507.366 77.4867 507.078 76.7716 506.573 76.2202C508.039 75.608 510.719 74.8199 510.134 72.5325C513.318 72.3218 521.045 67.1587 516.775 63.3867C519.119 62.0616 521.273 58.8229 519.768 55.9692C519.11 54.9582 518.21 54.1271 517.15 53.5511C516.09 52.975 514.904 52.6723 513.697 52.6701" fill="#191847"/>
<path fill-rule="evenodd" clip-rule="evenodd" d="M543.1 217.15H476.256L467.497 324.441H567L543.1 217.15Z" fill="#C5CFD6"/>
<path fill-rule="evenodd" clip-rule="evenodd" d="M543.1 217.15H522.541L510.237 324.441H567L543.1 217.15Z" fill="black" fill-opacity="0.1"/>
<path fill-rule="evenodd" clip-rule="evenodd" d="M400.049 198.767C392.921 194.487 380.965 199.986 380.973 206.098C380.996 224.41 397.708 310.716 398.582 316.173C399.457 321.629 408.802 323.07 409.347 316.189C410.208 305.255 411.821 267.363 410.208 249.824C409.543 242.585 408.828 235.689 408.124 229.538C416.895 245.375 430.458 268.048 448.815 297.557L458.778 293.008C450.958 267.226 444.543 249.025 439.533 238.406C430.959 220.22 422.919 204.649 419.535 199.163C414.209 190.536 404.944 193.545 400.049 198.767Z" fill="#B28B67"/>
<path fill-rule="evenodd" clip-rule="evenodd" d="M458.067 278.691L423.866 197.672C415.673 184.492 392.7 200.353 395.495 207.998C401.839 225.353 434.1 281.538 435.99 286.707L458.067 278.691Z" fill="#C5CFD6"/>
<path fill-rule="evenodd" clip-rule="evenodd" d="M459.967 287.9C461.576 289.098 462.979 290.549 464.124 292.196C465.203 294.222 466.119 296.331 466.865 298.501L424.601 322.903C421.407 319.907 420.912 317.582 423.115 315.93C425.319 314.278 427.131 312.879 428.552 311.733L443.139 291.637C443.274 291.452 443.477 291.328 443.704 291.292C443.93 291.256 444.162 291.311 444.347 291.446L444.366 291.46L447.405 293.791C449.565 293.712 451.684 293.184 453.629 292.241C455.159 291.175 456.459 289.813 457.454 288.236C457.586 288.05 457.752 287.892 457.945 287.771C458.137 287.65 458.352 287.568 458.576 287.529C458.8 287.491 459.03 287.497 459.251 287.548C459.473 287.599 459.683 287.692 459.868 287.824C459.906 287.846 459.939 287.871 459.967 287.9Z" fill="#E4E4E4"/>
<path fill-rule="evenodd" clip-rule="evenodd" d="M411.535 311.811C412.329 313.653 412.819 315.611 412.987 317.61C412.908 319.904 412.647 322.188 412.208 324.441H363.405C362.136 320.248 362.87 317.988 365.604 317.659C368.339 317.33 370.608 317.025 372.411 316.743L395.093 306.633C395.302 306.54 395.54 306.533 395.754 306.615C395.968 306.698 396.141 306.861 396.234 307.071L396.244 307.093L397.71 310.63C399.62 311.642 401.72 312.245 403.876 312.401C405.733 312.242 407.541 311.713 409.191 310.845C409.397 310.75 409.621 310.696 409.848 310.687C410.075 310.679 410.302 310.715 410.515 310.794C410.729 310.873 410.924 310.993 411.091 311.148C411.258 311.302 411.393 311.488 411.487 311.695C411.509 311.733 411.525 311.771 411.535 311.811Z" fill="#E4E4E4"/>
<path fill-rule="evenodd" clip-rule="evenodd" d="M378.575 212.334C378.575 235.321 389.492 288.946 389.499 294.001L412.987 294.019C409.55 246.175 408.328 221.995 409.321 221.479C410.829 220.706 470.798 227.469 488.793 227.469C514.731 227.469 525.462 211.111 526.333 180.811H474.949C464.487 181.931 409.915 192.937 389.649 196.722C380.973 198.345 378.575 206.001 378.575 212.334Z" fill="#AFB9C5"/>
<path fill-rule="evenodd" clip-rule="evenodd" d="M466.945 126.905L436.912 110.457C432.644 105.2 427.678 100.551 422.151 96.6397C420.67 96.0221 418.08 95.6463 420.501 99.9388C422.922 104.231 425.277 108.868 424.044 110.203C422.81 111.537 419.733 109.677 418.26 111.878C417.282 113.344 422.539 115.662 434.031 118.832L455.855 138.81L466.945 126.905ZM419.909 140.783L406.713 133.536C404.862 126.494 402.649 122.95 400.076 122.906C398.098 121.99 401.542 130.886 397.794 130.115C394.046 129.343 384.895 122.538 383.315 123.92C380.982 125.963 383.062 132.241 385.514 135.362C390.096 141.198 393.885 143.194 403.258 145.809C408.996 147.598 414.377 150.378 419.158 154.022L419.909 140.783Z" fill="#997659"/>
<path fill-rule="evenodd" clip-rule="evenodd" d="M481.569 123.241C467.544 123.134 453.839 119.033 442.061 111.417L436.184 124.526C446.504 134.76 461.02 143.182 473.713 142.825C475.961 142.777 478.146 142.07 479.995 140.79C481.844 139.511 483.276 137.716 484.113 135.629C484.95 133.542 485.156 131.255 484.703 129.053C484.251 126.85 483.161 124.829 481.569 123.241Z" fill="#2026A2"/>
<path fill-rule="evenodd" clip-rule="evenodd" d="M467.407 144.264C456.239 147.049 437.512 143.764 411.225 134.411C404.705 147.9 401.691 157.517 402.182 163.261C424.726 175.041 444.061 180.292 459.984 180.64C459.238 189.761 460.787 198.923 464.491 207.291C472.435 224.179 518.941 208.54 534.577 211.61C544.37 179.808 525.435 166.889 525.413 146.544C525.403 124.261 507.513 89.9609 504.879 89.9609H480.869C479.546 106.979 472.873 125.734 467.407 144.264Z" fill="#1F28CF"/>
<path d="M394.125 69.25V49.6348C394.125 49.218 394.27 48.8128 394.537 48.4831C394.804 48.1534 395.178 47.9177 395.6 47.8132C396.022 47.7086 396.469 47.741 396.87 47.9053C397.271 48.0697 397.603 48.3566 397.815 48.7211L409.185 68.2789C409.397 68.6434 409.729 68.9303 410.13 69.0947C410.531 69.259 410.978 69.2914 411.4 69.1868C411.822 69.0823 412.196 68.8466 412.463 68.5169C412.73 68.1872 412.875 67.782 412.875 67.3652V47.75" stroke="#3AEE46" stroke-width="2" stroke-linecap="round" stroke-linejoin="round"/>
<path d="M390.375 54.9167H416.625" stroke="#3AEE46" stroke-width="2" stroke-linecap="round" stroke-linejoin="round"/>
<path d="M390.375 62.0833H416.625" stroke="#3AEE46" stroke-width="2" stroke-linecap="round" stroke-linejoin="round"/>
</svg>
