<svg width="163" height="46" viewBox="0 0 163 46" fill="none" xmlns="http://www.w3.org/2000/svg">
<path d="M12.9 21.25L8.2 26.15V35H0.15V-2.38419e-06H8.2V16.35L23.7 -2.38419e-06H32.7L18.2 15.6L33.55 35H24.1L12.9 21.25ZM46.8758 7.7C51.0424 7.7 54.2424 8.7 56.4758 10.7C58.7091 12.6667 59.8258 15.65 59.8258 19.65V35H52.5258V31.65C51.0591 34.15 48.3258 35.4 44.3258 35.4C42.2591 35.4 40.4591 35.05 38.9258 34.35C37.4258 33.65 36.2758 32.6833 35.4758 31.45C34.6758 30.2167 34.2758 28.8167 34.2758 27.25C34.2758 24.75 35.2091 22.7833 37.0758 21.35C38.9758 19.9167 41.8924 19.2 45.8258 19.2H52.0258C52.0258 17.5 51.5091 16.2 50.4758 15.3C49.4424 14.3667 47.8924 13.9 45.8258 13.9C44.3924 13.9 42.9758 14.1333 41.5758 14.6C40.2091 15.0333 39.0424 15.6333 38.0758 16.4L35.2758 10.95C36.7424 9.91667 38.4924 9.11667 40.5258 8.55C42.5924 7.98333 44.7091 7.7 46.8758 7.7ZM46.2758 30.15C47.6091 30.15 48.7924 29.85 49.8258 29.25C50.8591 28.6167 51.5924 27.7 52.0258 26.5V23.75H46.6758C43.4758 23.75 41.8758 24.8 41.8758 26.9C41.8758 27.9 42.2591 28.7 43.0258 29.3C43.8258 29.8667 44.9091 30.15 46.2758 30.15ZM94.9281 8.1V30.5C94.9281 35.4333 93.6448 39.1 91.0781 41.5C88.5115 43.9 84.7615 45.1 79.8281 45.1C77.2281 45.1 74.7615 44.7833 72.4281 44.15C70.0948 43.5167 68.1615 42.6 66.6281 41.4L69.7281 35.8C70.8615 36.7333 72.2948 37.4667 74.0281 38C75.7615 38.5667 77.4948 38.85 79.2281 38.85C81.9281 38.85 83.9115 38.2333 85.1781 37C86.4781 35.8 87.1281 33.9667 87.1281 31.5V30.35C85.0948 32.5833 82.2615 33.7 78.6281 33.7C76.1615 33.7 73.8948 33.1667 71.8281 32.1C69.7948 31 68.1781 29.4667 66.9781 27.5C65.7781 25.5333 65.1781 23.2667 65.1781 20.7C65.1781 18.1333 65.7781 15.8667 66.9781 13.9C68.1781 11.9333 69.7948 10.4167 71.8281 9.35C73.8948 8.25 76.1615 7.7 78.6281 7.7C82.5281 7.7 85.4948 8.98333 87.5281 11.55V8.1H94.9281ZM80.1781 27.3C82.2448 27.3 83.9281 26.7 85.2281 25.5C86.5615 24.2667 87.2281 22.6667 87.2281 20.7C87.2281 18.7333 86.5615 17.15 85.2281 15.95C83.9281 14.7167 82.2448 14.1 80.1781 14.1C78.1115 14.1 76.4115 14.7167 75.0781 15.95C73.7448 17.15 73.0781 18.7333 73.0781 20.7C73.0781 22.6667 73.7448 24.2667 75.0781 25.5C76.4115 26.7 78.1115 27.3 80.1781 27.3ZM114.988 35.4C112.155 35.4 109.605 34.8167 107.338 33.65C105.105 32.45 103.355 30.8 102.088 28.7C100.821 26.6 100.188 24.2167 100.188 21.55C100.188 18.8833 100.821 16.5 102.088 14.4C103.355 12.3 105.105 10.6667 107.338 9.5C109.605 8.3 112.155 7.7 114.988 7.7C117.821 7.7 120.355 8.3 122.588 9.5C124.821 10.6667 126.571 12.3 127.838 14.4C129.105 16.5 129.738 18.8833 129.738 21.55C129.738 24.2167 129.105 26.6 127.838 28.7C126.571 30.8 124.821 32.45 122.588 33.65C120.355 34.8167 117.821 35.4 114.988 35.4ZM114.988 29C116.988 29 118.621 28.3333 119.888 27C121.188 25.6333 121.838 23.8167 121.838 21.55C121.838 19.2833 121.188 17.4833 119.888 16.15C118.621 14.7833 116.988 14.1 114.988 14.1C112.988 14.1 111.338 14.7833 110.038 16.15C108.738 17.4833 108.088 19.2833 108.088 21.55C108.088 23.8167 108.738 25.6333 110.038 27C111.338 28.3333 112.988 29 114.988 29ZM151.302 7.7C154.635 7.7 157.318 8.7 159.352 10.7C161.418 12.7 162.452 15.6667 162.452 19.6V35H154.652V20.8C154.652 18.6667 154.185 17.0833 153.252 16.05C152.318 14.9833 150.968 14.45 149.202 14.45C147.235 14.45 145.668 15.0667 144.502 16.3C143.335 17.5 142.752 19.3 142.752 21.7V35H134.952V8.1H142.402V11.25C143.435 10.1167 144.718 9.25 146.252 8.65C147.785 8.01667 149.468 7.7 151.302 7.7Z" fill="white"/>
</svg>
