<svg width="18" height="20" viewBox="0 0 18 20" fill="none" xmlns="http://www.w3.org/2000/svg">
<path d="M16 17.7525V16.0017C16 15.073 15.6311 14.1823 14.9744 13.5256C14.3177 12.8689 13.427 12.5 12.4983 12.5H5.50167C4.57297 12.5 3.6823 12.8689 3.02561 13.5256C2.36892 14.1823 2 15.073 2 16.0017V17.7525" stroke="#065DB5" stroke-width="3" stroke-linecap="round" stroke-linejoin="round"/>
<path d="M12.5033 5.50167C12.5033 6.19423 12.298 6.87124 11.9132 7.44709C11.5284 8.02294 10.9815 8.47175 10.3417 8.73679C9.70185 9.00182 8.99779 9.07116 8.31853 8.93605C7.63927 8.80094 7.01533 8.46744 6.52562 7.97772C6.0359 7.488 5.7024 6.86407 5.56729 6.18481C5.43217 5.50555 5.50152 4.80148 5.76655 4.16164C6.03158 3.52179 6.4804 2.97491 7.05625 2.59014C7.63209 2.20537 8.30911 2 9.00167 2C9.93037 2 10.821 2.36892 11.4777 3.02561C12.1344 3.6823 12.5033 4.57297 12.5033 5.50167Z" stroke="#065DB5" stroke-width="3" stroke-linecap="round" stroke-linejoin="round"/>
</svg>
