<svg width="946" height="946" viewBox="0 0 946 946" fill="none" xmlns="http://www.w3.org/2000/svg">
<circle cx="473" cy="473" r="473" fill="#E3EEFC"/>
<g clip-path="url(#clip0)">
<path d="M671.724 373.397L682.194 361.218L692.397 369.991C693.771 371.172 695.52 371.816 697.319 371.816C697.509 371.816 697.698 371.809 697.887 371.795C699.883 371.644 701.739 370.706 703.044 369.187L719.254 350.333C721.972 347.171 721.612 342.405 718.451 339.687L662.701 291.758C661.182 290.452 659.208 289.796 657.21 289.954C655.214 290.104 653.359 291.042 652.053 292.56L635.844 311.414C633.126 314.576 633.485 319.342 636.647 322.06L646.85 330.833L635.579 343.943C612.491 329.196 586.217 319.015 558.038 314.692V291.879H584.04C596.175 291.879 606.047 282.006 606.047 269.87V252.305C606.047 240.169 596.174 230.296 584.04 230.296H470.61C458.474 230.296 448.601 240.169 448.601 252.305V269.87C448.601 282.006 458.474 291.879 470.61 291.879H496.612V314.692C467.878 319.101 441.128 329.606 417.713 344.826L405.682 330.833L415.886 322.06C417.404 320.754 418.342 318.899 418.493 316.903C418.643 314.907 417.994 312.932 416.689 311.413L400.479 292.559C397.76 289.398 392.995 289.038 389.832 291.757L334.083 339.686C332.565 340.992 331.628 342.847 331.477 344.843C331.327 346.839 331.975 348.814 333.281 350.333L349.49 369.187C350.983 370.924 353.095 371.815 355.218 371.815C356.961 371.815 358.712 371.215 360.136 369.99L370.34 361.218L381.802 374.55C371.883 384.895 363.056 396.295 355.501 408.558C355.246 408.531 354.988 408.518 354.725 408.518H307.048C302.878 408.518 299.498 411.899 299.498 416.068C299.498 420.237 302.878 423.618 307.048 423.618H347.091C343.115 431.51 339.644 439.696 336.718 448.135H260.437C256.268 448.135 252.887 451.515 252.887 455.685C252.887 459.854 256.268 463.235 260.437 463.235H332.135C329.409 473.699 327.517 484.496 326.507 495.544H224.55C220.38 495.544 217 498.925 217 503.094C217 507.263 220.38 510.644 224.55 510.644H325.695C325.676 511.772 325.651 512.899 325.651 514.032C325.651 523.852 326.371 533.505 327.734 542.953H253.391C249.221 542.953 245.841 546.334 245.841 550.503C245.841 554.673 249.221 558.053 253.391 558.053H330.504C332.377 566.432 334.767 574.617 337.65 582.569H300.001C295.832 582.569 292.452 585.95 292.452 590.119C292.452 594.288 295.832 597.669 300.001 597.669H343.83C375.67 667.246 445.941 715.706 527.326 715.706C569.833 715.706 610.488 702.636 644.896 677.909C648.282 675.476 649.055 670.758 646.622 667.373C644.186 663.985 639.47 663.215 636.084 665.648C604.26 688.519 566.651 700.607 527.326 700.607C424.448 700.607 340.751 616.91 340.751 514.033C340.751 411.155 424.448 327.458 527.326 327.458C577.127 327.458 622.433 347.072 655.927 378.98C655.995 379.052 656.072 379.119 656.143 379.189C691.713 413.183 713.901 461.065 713.901 514.033C713.901 563.93 694.453 610.824 659.138 646.076C656.187 649.023 656.183 653.802 659.129 656.754C662.074 659.704 666.855 659.709 669.805 656.763C707.978 618.657 729 567.968 729 514.032C729 459.384 707.143 409.754 671.724 373.397V373.397ZM658.582 308.128L702.883 346.214L696.517 353.618L652.216 315.532L658.582 308.128ZM658.302 340.677L670.744 351.374L660.779 362.966C656.682 359.343 652.444 355.874 648.061 352.587L658.302 340.677ZM493.937 276.78V245.395H506.13V276.78H493.937ZM521.229 245.395H533.421V276.78H521.229V245.395ZM548.521 276.78V245.395H560.714V276.78H548.521ZM590.95 252.305V269.87C590.95 273.681 587.851 276.78 584.042 276.78H575.814V245.395H584.042C587.851 245.395 590.95 248.495 590.95 252.305V252.305ZM463.701 269.87V252.305C463.701 248.495 466.801 245.395 470.611 245.395H478.838V276.78H470.611C466.801 276.78 463.701 273.681 463.701 269.87V269.87ZM356.017 353.619L349.651 346.215L393.951 308.129L400.317 315.533L390.115 324.305C390.115 324.305 390.114 324.306 390.113 324.306L366.22 344.847C366.219 344.848 366.219 344.848 366.218 344.849L356.017 353.619ZM382.015 351.18L394.232 340.677L405.314 353.567C400.958 356.886 396.739 360.376 392.672 364.032L381.789 351.375L382.015 351.18ZM511.711 312.956V291.879H542.94V312.957C537.786 312.561 532.579 312.357 527.325 312.357C522.072 312.357 516.865 312.561 511.711 312.956Z" fill="#038CCC"/>
<path d="M464.096 376.485C462.164 372.79 457.602 371.361 453.908 373.291C408.008 397.283 376.615 442.229 369.931 493.521C358.622 580.308 420.028 660.117 506.816 671.425C513.749 672.329 520.624 672.768 527.437 672.767C605.903 672.76 674.313 614.395 684.72 534.541C690.198 492.499 678.977 450.841 653.122 417.239C627.268 383.637 589.876 362.115 547.834 356.636C527.323 353.962 506.867 355.251 487.03 360.464C482.998 361.524 480.588 365.652 481.647 369.684C482.707 373.717 486.837 376.125 490.867 375.068C500.368 372.571 510.031 371.081 519.775 370.58V390.416C519.775 394.585 523.154 397.966 527.325 397.966C531.495 397.966 534.874 394.585 534.874 390.416V370.598C538.539 370.797 542.21 371.129 545.884 371.607C575.285 375.438 602.169 387.949 623.668 407.468L609.995 421.14C607.045 424.089 607.045 428.868 609.994 431.817C611.469 433.291 613.4 434.028 615.333 434.028C617.265 434.028 619.197 433.291 620.671 431.817L634.305 418.183C636.677 420.838 638.963 423.593 641.156 426.444C659.208 449.906 669.367 477.709 670.792 506.661H652.065C647.894 506.661 644.515 510.042 644.515 514.211C644.515 518.38 647.894 521.761 652.065 521.761H670.751C670.552 525.362 670.218 528.973 669.747 532.587C665.858 562.433 653.01 588.955 634.273 609.814L621.339 596.88C618.389 593.932 613.61 593.932 610.661 596.88C607.713 599.829 607.713 604.609 610.661 607.557L623.609 620.505C599.83 641.976 569.038 655.451 535.817 657.406V638.949C535.817 634.78 532.438 631.4 528.268 631.4C524.097 631.4 520.718 634.78 520.718 638.949V657.498C516.755 657.313 512.77 656.972 508.767 656.45C479.25 652.603 452.979 639.998 432.225 621.595L445.597 608.223C448.546 605.275 448.546 600.495 445.597 597.547C442.649 594.598 437.869 594.598 434.921 597.547L421.473 610.994C399.679 587.165 385.971 556.17 383.959 522.702H403.528C407.698 522.702 411.078 519.322 411.078 515.152C411.078 510.983 407.698 507.603 403.528 507.603H383.848C384.031 503.58 384.374 499.533 384.904 495.47C388.684 466.468 401.195 439.706 420.184 418.412L434.255 432.482C435.728 433.957 437.661 434.693 439.593 434.693C441.525 434.693 443.457 433.957 444.931 432.482C447.879 429.534 447.879 424.753 444.931 421.806L430.822 407.697C439.815 399.524 449.892 392.425 460.902 386.67C464.598 384.742 466.028 380.18 464.096 376.485V376.485Z" fill="#038CCC"/>
<path d="M527.327 444.777C523.156 444.777 519.777 448.158 519.777 452.327V497.172C513.339 500.067 508.839 506.527 508.839 514.031C508.839 524.225 517.132 532.519 527.327 532.519C530.121 532.519 532.762 531.878 535.14 530.762L585.509 581.131C586.983 582.606 588.915 583.343 590.848 583.343C592.78 583.343 594.712 582.606 596.187 581.131C599.135 578.183 599.135 573.402 596.187 570.455L545.038 519.305C545.537 517.632 545.814 515.864 545.814 514.031C545.814 506.528 541.314 500.067 534.877 497.173V452.328C534.876 448.158 531.496 444.777 527.327 444.777V444.777ZM523.938 514.03C523.938 512.162 525.458 510.642 527.327 510.642C529.194 510.642 530.714 512.162 530.714 514.03C530.714 515.899 529.194 517.419 527.327 517.419C525.457 517.419 523.938 515.899 523.938 514.03Z" fill="#038CCC"/>
</g>
<defs>
<clipPath id="clip0">
<rect width="512" height="512" fill="white" transform="translate(217 217)"/>
</clipPath>
</defs>
</svg>
