<svg width="946" height="946" viewBox="0 0 946 946" fill="none" xmlns="http://www.w3.org/2000/svg">
<circle cx="473" cy="473" r="473" fill="#E3EEFC"/>
<g clip-path="url(#clip0)">
<path d="M608.531 390.803C604.371 386.643 597.608 386.643 593.448 390.803L451.667 532.584L373.864 454.803C369.704 450.643 362.941 450.643 358.781 454.803C354.621 458.963 354.621 465.726 358.781 469.886L444.114 555.219C446.205 557.288 448.935 558.334 451.666 558.334C454.397 558.334 457.127 557.289 459.197 555.219L608.53 405.886C612.691 401.725 612.691 394.963 608.531 390.803Z" fill="#038CCC"/>
<path d="M689.384 281.448L476.051 217.448C474.046 216.851 471.934 216.851 469.928 217.448L256.595 281.448C252.093 282.792 249 286.952 249 291.667V526.334C249 620.67 392.829 704.574 469.843 728.531C470.867 728.851 471.934 729 473 729C474.066 729 475.133 728.851 476.157 728.531C553.171 704.552 697 620.669 697 526.333V291.667C697 286.952 693.907 282.813 689.384 281.448ZM675.667 526.333C675.667 601.234 556.99 679.997 473 707.154C389.011 679.997 270.333 601.234 270.333 526.333V299.603L473 238.803L675.667 299.603V526.333V526.333Z" fill="#038CCC"/>
</g>
<defs>
<clipPath id="clip0">
<rect width="512" height="512" fill="white" transform="translate(217 217)"/>
</clipPath>
</defs>
</svg>
