
<svg width="24" height="24" viewBox="0 0 24 24" fill="none" xmlns="http://www.w3.org/2000/svg">
<path d="M7.99846 2.40039C4.91126 2.40039 2.40002 4.91395 2.40002 8.00195V16.002C2.40002 19.0892 4.91359 21.6004 8.00159 21.6004H16.0016C19.0888 21.6004 21.6 19.0868 21.6 15.9988V7.99883C21.6 4.91163 19.0865 2.40039 15.9985 2.40039H7.99846ZM17.6 5.60039C18.0416 5.60039 18.4 5.95879 18.4 6.40039C18.4 6.84199 18.0416 7.20039 17.6 7.20039C17.1584 7.20039 16.8 6.84199 16.8 6.40039C16.8 5.95879 17.1584 5.60039 17.6 5.60039ZM12 7.20039C14.6472 7.20039 16.8 9.35319 16.8 12.0004C16.8 14.6476 14.6472 16.8004 12 16.8004C9.35282 16.8004 7.20002 14.6476 7.20002 12.0004C7.20002 9.35319 9.35282 7.20039 12 7.20039ZM12 8.80039C11.1513 8.80039 10.3374 9.13753 9.73728 9.73765C9.13717 10.3378 8.80002 11.1517 8.80002 12.0004C8.80002 12.8491 9.13717 13.663 9.73728 14.2631C10.3374 14.8632 11.1513 15.2004 12 15.2004C12.8487 15.2004 13.6626 14.8632 14.2628 14.2631C14.8629 13.663 15.2 12.8491 15.2 12.0004C15.2 11.1517 14.8629 10.3378 14.2628 9.73765C13.6626 9.13753 12.8487 8.80039 12 8.80039Z" fill="#fff"/>
</svg>
